<?xml version="1.0" encoding="utf-8"?>
<!-- Generator: Adobe Illustrator 15.0.0, SVG Export Plug-In . SVG Version: 6.00 Build 0)  -->
<!DOCTYPE svg PUBLIC "-//W3C//DTD SVG 1.1//EN" "http://www.w3.org/Graphics/SVG/1.1/DTD/svg11.dtd">
<svg version="1.1" id="Layer_1" xmlns="http://www.w3.org/2000/svg" xmlns:xlink="http://www.w3.org/1999/xlink" x="0px" y="0px"
	 width="376.5px" height="99.5px" viewBox="0 0 376.5 99.5" enable-background="new 0 0 376.5 99.5" xml:space="preserve">
<rect x="20.407" y="20.282" fill="#F15A22" width="8.186" height="33.749"/>
<polygon fill="#F15A22" points="54.053,28.342 20.416,28.342 20.416,20.157 54.405,20.157 54.405,28.342 54.405,28.5 54.053,28.5 
	"/>
<polygon fill="#F15A22" points="21.264,54.03 54.901,54.03 54.901,46.087 20.91,46.087 20.91,54.03 "/>
<g>
	<path fill="#F15A22" d="M6.122,54.058h8.185V16.184c0-0.837,0.681-1.519,1.519-1.519h15.89V5.868H6.466H6.122v4.606
		c-0.001,0.354-0.001,0.736,0,1.168v0.1v0.103v1.019V54.058z"/>
	<path fill="#F9F9F9" d="M230.47,18.053L219.205,43.32c-0.188,0.421-0.594,0.686-1.049,0.683c-0.456,0-0.86-0.267-1.045-0.688
		l-11.098-25.263h-1.746h-4.71l2.417,6.259l12.59,28.462c0.136,0.308,0.135,0.646-0.001,0.954L208.646,67h6.81l2.172-4.869
		l19.651-44.079L230.47,18.053L230.47,18.053z"/>
	<polygon fill="#F9F9F9" points="170.717,11.959 170.717,54.125 176.899,54.125 176.899,5.865 170.717,5.865 	"/>
	<path fill="#F9F9F9" d="M295.12,17.449c-0.759-0.093-1.519-0.141-2.28-0.141s-1.525,0.047-2.279,0.141
		c-9.211,1.137-16.128,8.994-16.128,18.267c0,9.274,6.918,17.129,16.127,18.269c0.758,0.092,1.519,0.14,2.28,0.14
		c0.763,0,1.523-0.048,2.28-0.14c9.21-1.14,16.125-8.994,16.125-18.269C311.248,26.443,304.33,18.586,295.12,17.449 M294.855,47.777
		c-0.665,0.11-1.341,0.166-2.018,0.166s-1.352-0.056-2.018-0.166l-0.168-0.029c-5.813-1.043-10.042-6.133-10.042-12.03
		c0-5.966,4.319-11.084,10.211-12.06c0.665-0.11,1.34-0.166,2.017-0.166c0.675,0,1.351,0.056,2.018,0.166l0.158,0.025
		c5.818,1.039,10.052,6.132,10.052,12.034C305.065,41.682,300.745,46.799,294.855,47.777"/>
	<path fill="#F9F9F9" d="M334.461,17.449c-0.758-0.093-1.521-0.141-2.281-0.141c-0.762,0-1.523,0.047-2.279,0.141
		c-9.21,1.137-16.127,8.994-16.127,18.267c0,9.274,6.919,17.129,16.126,18.269c0.759,0.092,1.519,0.14,2.28,0.14
		c0.763,0,1.524-0.048,2.281-0.14c9.21-1.14,16.126-8.994,16.126-18.269C350.588,26.443,343.67,18.586,334.461,17.449
		 M334.195,47.777c-0.664,0.11-1.339,0.166-2.016,0.166c-0.676,0-1.352-0.056-2.019-0.166l-0.167-0.029
		c-5.812-1.043-10.041-6.133-10.041-12.03c0-5.966,4.32-11.084,10.209-12.06c0.667-0.11,1.342-0.166,2.018-0.166
		c0.677,0,1.351,0.056,2.017,0.166l0.16,0.025c5.815,1.039,10.051,6.132,10.051,12.034
		C344.405,41.682,340.085,46.799,334.195,47.777"/>
	<path fill="#F9F9F9" d="M191.138,17.908h-1.147v-1.146v-3.414v-7.49h-6.182v12.05h-3.092v6.182h3.092v27.776
		c0,1.248,1.011,2.259,2.259,2.259h11.279v-6.182h-6.513c-0.466,0-0.844-0.378-0.844-0.847l0.001-22.131
		c0-0.468,0.379-0.846,0.846-0.846h6.51v-6.212h-4.609H191.138z"/>
	<path fill="#F9F9F9" d="M265.34,5.85v16.104c-2.7-2.405-6.124-4.034-9.945-4.505c-0.756-0.094-1.519-0.141-2.279-0.141
		c-0.762,0-1.523,0.047-2.28,0.141c-9.21,1.137-16.126,8.993-16.126,18.267s6.918,17.131,16.126,18.267
		c0.758,0.094,1.518,0.143,2.28,0.143c0.761,0,1.524-0.049,2.279-0.143c3.821-0.471,7.245-2.099,9.945-4.504v4.544h6.183V35.717
		V5.85h-3.092H265.34z M255.13,47.777c-0.663,0.11-1.339,0.164-2.017,0.164c-0.675,0-1.351-0.054-2.018-0.164l-0.169-0.029
		c-5.812-1.042-10.04-6.133-10.04-12.03c0-5.966,4.32-11.083,10.209-12.06c0.667-0.11,1.342-0.166,2.018-0.166
		c0.677,0,1.351,0.056,2.017,0.166l0.158,0.025c5.817,1.039,10.052,6.132,10.052,12.034C265.34,41.682,261.02,46.8,255.13,47.777"/>
	<path fill="#F9F9F9" d="M160.205,17.608v4.346c-2.702-2.405-6.126-4.034-9.946-4.505c-0.756-0.094-1.519-0.14-2.281-0.14
		c-0.763,0-1.524,0.046-2.281,0.14c-9.208,1.137-16.126,8.993-16.126,18.268s6.918,17.13,16.126,18.268
		c0.757,0.094,1.52,0.142,2.281,0.142c0.762,0,1.525-0.048,2.281-0.142c3.82-0.472,7.244-2.101,9.946-4.505v4.544h6.182V23.791
		v-6.183h-3.091H160.205z M149.995,47.777c-0.666,0.11-1.341,0.164-2.017,0.164s-1.351-0.054-2.017-0.164l-0.168-0.029
		c-5.811-1.042-10.041-6.133-10.041-12.03c0.001-5.966,4.32-11.083,10.208-12.06c0.667-0.11,1.342-0.166,2.017-0.166
		s1.351,0.056,2.017,0.166l0.158,0.025c5.817,1.039,10.052,6.132,10.052,12.034C160.205,41.682,155.884,46.8,149.995,47.777"/>
	<path fill="#F9F9F9" d="M70.232,17.908v36.217h6.182V25.236c0-0.633,0.514-1.148,1.146-1.148h12.003v-6.18H70.492H70.232z"/>
	<path fill="#F9F9F9" d="M353.77,17.908v36.217h6.182V25.236c0-0.633,0.515-1.148,1.146-1.148H373.1v-6.18H353.77z"/>
	<path fill="#F9F9F9" d="M108.192,17.308c-9.273,0-17.129,6.919-18.268,16.128c-0.093,0.756-0.216,1.274-0.216,2.036
		c0,0-0.363,6.844,3.811,12.284c1.257,1.64,2.889,3.145,5.101,4.304s5.003,1.971,8.577,2.224c2.446,0.172,4.367,0.052,6.121-0.289
		c2.925-0.567,5.161-1.718,6.932-2.909c3.922-2.637,5.618-5.243,5.618-5.243l-8.896-0.113c-4.352,2.846-9.084,2.501-11.605,2.165
		c-0.84-0.111-1.671-0.285-2.458-0.599c-5.616-2.244-6.549-8.488-6.549-8.488h30.26v-0.81c0.093-0.758-0.02-1.52-0.02-2.279
		c0-0.763-0.046-1.524-0.14-2.281C125.323,24.228,117.468,17.308,108.192,17.308 M104.96,32.626h-3.784h-4.815
		c0.134-0.514,0.301-1.02,0.502-1.514c0.008-0.023,0.018-0.048,0.026-0.07c0.787-1.905,2.043-3.575,3.655-4.866
		c2.174-1.746,4.858-2.688,7.648-2.688c2.782,0,5.478,0.952,7.649,2.688c1.61,1.288,2.868,2.96,3.655,4.866
		c0.01,0.022,0.019,0.046,0.027,0.069c0.078,0.193,0.152,0.388,0.22,0.585l0.325,0.93H104.96z"/>
	<polygon fill="#F15A22" points="48.554,54.03 56.87,54.03 56.87,5.849 48.686,5.849 48.526,5.849 	"/>
</g>
<g>
	<path fill="#F9F9F9" d="M15.729,87.406H8.62l-1.166,2.936H4.677l6.099-15.575h2.796l6.1,15.575h-2.798L15.729,87.406z
		 M12.174,78.037L9.65,84.668h5.049L12.174,78.037z"/>
	<path fill="#F9F9F9" d="M36.484,74.788v8.923c0,4.605-2.466,6.965-5.886,6.965c-3.263,0-6.041-2.268-6.041-6.965v-8.923h2.546
		v8.923c0,2.805,1.397,4.294,3.515,4.294c2.117,0,3.322-1.624,3.322-4.294v-8.923H36.484z"/>
	<path fill="#F9F9F9" d="M45.68,90.342v-5.74c0-1.67-0.796-2.938-2.312-2.938c-1.457,0-2.448,1.401-2.448,3.07v5.607h-2.35V79.351
		h2.117l0.155,1.491c0.971-1.092,1.943-1.647,3.148-1.647c2.252,0,4.06,1.938,4.06,5.385v5.763H45.68z"/>
	<path fill="#F9F9F9" d="M52.68,76.279c0,2.115-2.798,2.115-2.798,0C49.882,74.167,52.68,74.167,52.68,76.279z M50.095,79.328
		v11.014h2.371V79.328H50.095z"/>
	<path fill="#F9F9F9" d="M57.947,76.279v3.117h2.641v2.334h-2.661v4.739c0,1.046,0.506,1.559,1.243,1.559
		c0.37,0,0.797-0.134,1.146-0.333l0.662,2.313c-0.68,0.312-1.244,0.444-1.963,0.467c-2.079,0.089-3.439-1.268-3.439-4.006V81.73
		h-1.787v-2.334h1.787v-2.827L57.947,76.279z"/>
	<path fill="#F9F9F9" d="M75.802,84.869c0,3.159-1.884,5.718-4.992,5.718c-3.108,0-4.973-2.559-4.973-5.718
		c0-3.139,1.903-5.719,4.952-5.719C73.84,79.15,75.802,81.73,75.802,84.869z M68.207,84.869c0,1.669,0.875,3.227,2.604,3.227
		s2.601-1.558,2.601-3.227c0-1.646-1.009-3.249-2.601-3.249C69.1,81.62,68.207,83.223,68.207,84.869z"/>
	<path fill="#F9F9F9" d="M78.217,90.342v-8.434h-1.785v-2.381h1.785v-0.732c0-2.938,1.73-4.295,3.652-4.295
		c0.834,0,1.709,0.312,2.485,0.891l-0.873,2.025c-0.506-0.38-0.971-0.58-1.457-0.58c-0.817,0-1.438,0.622-1.438,1.959v0.732h2.817
		v2.381h-2.817v8.434H78.217z"/>
	<path fill="#F9F9F9" d="M99.028,87.406h-7.109l-1.166,2.936h-2.777l6.098-15.575h2.796l6.101,15.575h-2.798L99.028,87.406z
		 M95.473,78.037l-2.525,6.631h5.05L95.473,78.037z"/>
	<path fill="#F9F9F9" d="M111.544,79.372h2.272v10.97h-2.233l-0.117-1.601c-0.545,1.29-2.04,1.912-3.109,1.935
		c-2.835,0.021-4.933-1.979-4.933-5.829c0-3.782,2.194-5.763,4.992-5.741c1.282,0,2.505,0.69,3.05,1.779L111.544,79.372z
		 M105.794,84.847c0,2.091,1.262,3.338,2.835,3.338c3.729,0,3.729-6.653,0-6.653C107.056,81.531,105.794,82.755,105.794,84.847z"/>
	<path fill="#F9F9F9" d="M122.079,82.287c-0.68-0.734-1.458-0.979-2.37-0.979c-1.128,0-1.75,0.4-1.75,1.091
		c0,0.712,0.563,1.112,1.787,1.201c1.807,0.133,4.098,0.6,4.098,3.515c0,1.938-1.379,3.605-4.117,3.605
		c-1.516,0-3.03-0.29-4.428-1.959l1.166-1.935c0.679,0.868,2.233,1.513,3.301,1.534c0.893,0.022,1.729-0.512,1.729-1.313
		c0-0.757-0.542-1.067-1.903-1.156c-1.806-0.156-3.963-0.913-3.963-3.404c0-2.536,2.293-3.428,4.041-3.428
		c1.496,0,2.622,0.336,3.729,1.447L122.079,82.287z"/>
	<path fill="#F9F9F9" d="M127.736,74.767v6.096c0.854-1.268,1.903-1.646,2.991-1.646c2.718,0,3.924,2.114,3.924,5.341v5.784h-2.372
		v-5.763c0-2.002-0.912-2.849-2.175-2.849c-1.397,0-2.369,1.357-2.369,3.004v5.607h-2.372V74.767H127.736z"/>
	<path fill="#F9F9F9" d="M138.854,79.372l0.175,1.269c0.738-1.357,1.73-1.557,2.701-1.557c0.99,0,1.942,0.443,2.466,1.046
		l-1.068,2.358c-0.485-0.467-0.933-0.713-1.709-0.713c-1.243,0-2.389,0.757-2.389,2.782v5.784h-2.371v-10.97H138.854z"/>
	<path fill="#F9F9F9" d="M147.677,76.279c0,2.115-2.798,2.115-2.798,0C144.879,74.167,147.677,74.167,147.677,76.279z
		 M145.092,79.328v11.014h2.372V79.328H145.092z"/>
	<path fill="#F9F9F9" d="M152.942,76.279v3.117h2.642v2.334h-2.663v4.739c0,1.046,0.506,1.559,1.243,1.559
		c0.371,0,0.797-0.134,1.147-0.333l0.662,2.313c-0.68,0.312-1.243,0.444-1.962,0.467c-2.079,0.089-3.439-1.268-3.439-4.006V81.73
		h-1.788v-2.334h1.788v-2.827L152.942,76.279z"/>
	<path fill="#F9F9F9" d="M159.726,74.767v6.096c0.854-1.268,1.902-1.646,2.99-1.646c2.72,0,3.924,2.114,3.924,5.341v5.784h-2.371
		v-5.763c0-2.002-0.913-2.849-2.175-2.849c-1.398,0-2.369,1.357-2.369,3.004v5.607h-2.371V74.767H159.726z"/>
	<path fill="#F9F9F9" d="M176.241,79.372h2.273v10.97h-2.232l-0.118-1.601c-0.543,1.29-2.038,1.912-3.107,1.935
		c-2.835,0.021-4.933-1.979-4.933-5.829c0-3.782,2.193-5.763,4.992-5.741c1.28,0,2.505,0.69,3.048,1.779L176.241,79.372z
		 M170.492,84.847c0,2.091,1.263,3.338,2.836,3.338c3.73,0,3.73-6.653,0-6.653C171.755,81.531,170.492,82.755,170.492,84.847z"/>
	<path fill="#F9F9F9" d="M188.117,79.372h2.272v10.97h-2.233l-0.117-1.601c-0.544,1.29-2.039,1.912-3.108,1.935
		c-2.835,0.021-4.933-1.979-4.933-5.829c0-3.782,2.193-5.763,4.992-5.741c1.281,0,2.505,0.69,3.049,1.779L188.117,79.372z
		 M182.368,84.847c0,2.091,1.262,3.338,2.835,3.338c3.729,0,3.729-6.653,0-6.653C183.629,81.531,182.368,82.755,182.368,84.847z"/>
	<path fill="#F9F9F9" d="M202.908,85.759h-3.847v4.583h-2.564V74.767c2.138,0,4.274-0.021,6.411-0.021
		C209.55,74.745,209.57,85.759,202.908,85.759z M199.061,83.065h3.847c3.283,0,3.263-5.519,0-5.519h-3.847V83.065z"/>
	<path fill="#F9F9F9" d="M211.248,79.372l0.176,1.269c0.737-1.357,1.729-1.557,2.7-1.557c0.991,0,1.942,0.443,2.466,1.046
		l-1.067,2.358c-0.485-0.467-0.934-0.713-1.71-0.713c-1.243,0-2.388,0.757-2.388,2.782v5.784h-2.371v-10.97H211.248z"/>
	<path fill="#F9F9F9" d="M227.006,84.869c0,3.159-1.884,5.718-4.991,5.718c-3.109,0-4.973-2.559-4.973-5.718
		c0-3.139,1.902-5.719,4.952-5.719C225.044,79.15,227.006,81.73,227.006,84.869z M219.411,84.869c0,1.669,0.875,3.227,2.604,3.227
		c1.729,0,2.601-1.558,2.601-3.227c0-1.646-1.009-3.249-2.601-3.249C220.304,81.62,219.411,83.223,219.411,84.869z"/>
	<path fill="#F9F9F9" d="M228.643,94.926V79.372h2.214l0.156,1.513c0.737-1.224,2.02-1.757,3.108-1.757
		c2.952,0,4.915,2.514,4.915,5.741c0,3.203-1.77,5.739-4.837,5.739c-1.01,0-2.506-0.355-3.186-1.556v5.873H228.643z M236.664,84.869
		c0-1.715-1.008-3.116-2.718-3.116c-1.71,0-2.719,1.401-2.719,3.116c0,1.711,1.108,3.114,2.719,3.114
		C235.558,87.983,236.664,86.58,236.664,84.869z"/>
	<path fill="#F9F9F9" d="M242.811,85.825c0.155,1.357,1.186,2.336,2.854,2.336c0.875,0,2.02-0.377,2.564-1.022l1.516,1.713
		c-1.011,1.201-2.663,1.78-4.119,1.78c-3.302,0-5.264-2.337-5.264-5.852c0-3.338,1.982-5.741,5.09-5.741
		c3.205,0,5.205,2.27,4.836,6.786H242.811z M248.017,83.577c-0.155-1.425-1.127-2.135-2.486-2.135c-1.283,0-2.332,0.71-2.682,2.135
		H248.017z"/>
	<path fill="#F9F9F9" d="M254.315,79.372l0.176,1.269c0.737-1.357,1.729-1.557,2.7-1.557c0.989,0,1.941,0.443,2.466,1.046
		l-1.067,2.358c-0.486-0.467-0.934-0.713-1.71-0.713c-1.243,0-2.389,0.757-2.389,2.782v5.784h-2.371v-10.97H254.315z"/>
	<path fill="#F9F9F9" d="M264.499,76.279v3.117h2.641v2.334h-2.662v4.739c0,1.046,0.507,1.559,1.243,1.559
		c0.37,0,0.798-0.134,1.146-0.333l0.661,2.313c-0.68,0.312-1.243,0.444-1.963,0.467c-2.078,0.089-3.438-1.268-3.438-4.006V81.73
		h-1.786v-2.334h1.786v-2.827L264.499,76.279z"/>
	<path fill="#F9F9F9" d="M271.495,76.279c0,2.115-2.798,2.115-2.798,0C268.697,74.167,271.495,74.167,271.495,76.279z
		 M268.911,79.328v11.014h2.371V79.328H268.911z"/>
	<path fill="#F9F9F9" d="M275.439,85.825c0.157,1.357,1.187,2.336,2.857,2.336c0.872,0,2.02-0.377,2.563-1.022l1.516,1.713
		c-1.01,1.201-2.661,1.78-4.117,1.78c-3.304,0-5.265-2.337-5.265-5.852c0-3.338,1.981-5.741,5.089-5.741
		c3.205,0,5.206,2.27,4.838,6.786H275.439z M280.646,83.577c-0.155-1.425-1.126-2.135-2.486-2.135c-1.282,0-2.331,0.71-2.68,2.135
		H280.646z"/>
	<path fill="#F9F9F9" d="M291.007,82.287c-0.68-0.734-1.456-0.979-2.369-0.979c-1.128,0-1.75,0.4-1.75,1.091
		c0,0.712,0.563,1.112,1.788,1.201c1.805,0.133,4.097,0.6,4.097,3.515c0,1.938-1.379,3.605-4.116,3.605
		c-1.516,0-3.03-0.29-4.429-1.959l1.166-1.935c0.679,0.868,2.233,1.513,3.301,1.534c0.894,0.022,1.729-0.512,1.729-1.313
		c0-0.757-0.542-1.067-1.902-1.156c-1.807-0.156-3.964-0.913-3.964-3.404c0-2.536,2.293-3.428,4.041-3.428
		c1.496,0,2.622,0.336,3.73,1.447L291.007,82.287z"/>
	<path fill="#F9F9F9" d="M304.805,85.759h-3.847v4.583h-2.563V74.767c2.136,0,4.273-0.021,6.41-0.021
		C311.447,74.745,311.466,85.759,304.805,85.759z M300.958,83.065h3.847c3.281,0,3.263-5.519,0-5.519h-3.847V83.065z"/>
	<path fill="#F9F9F9" d="M321.691,79.351l-4.079,11.037h-2.563l-4.1-11.037h2.585l1.32,3.626l1.476,4.628l1.457-4.584l1.322-3.67
		H321.691z"/>
	<path fill="#F9F9F9" d="M326.185,76.279v3.117h2.642v2.334h-2.661v4.739c0,1.046,0.505,1.559,1.242,1.559
		c0.371,0,0.798-0.134,1.147-0.333l0.661,2.313c-0.681,0.312-1.243,0.444-1.963,0.467c-2.078,0.089-3.438-1.268-3.438-4.006V81.73
		h-1.787v-2.334h1.787v-2.827L326.185,76.279z"/>
	<path fill="#F9F9F9" d="M333.337,88.94c0,2.114-2.797,2.114-2.797,0C330.54,86.827,333.337,86.827,333.337,88.94z"/>
	<path fill="#F9F9F9" d="M341.965,74.767v12.862h6.993v2.713h-9.557V74.767H341.965z"/>
	<path fill="#F9F9F9" d="M353.938,76.279v3.117h2.641v2.334h-2.661v4.739c0,1.046,0.506,1.559,1.243,1.559
		c0.369,0,0.797-0.134,1.146-0.333l0.659,2.313c-0.679,0.312-1.243,0.444-1.961,0.467c-2.078,0.089-3.438-1.268-3.438-4.006V81.73
		h-1.787v-2.334h1.787v-2.827L353.938,76.279z"/>
	<path fill="#F9F9F9" d="M368.295,74.788v15.554h-2.215l-0.154-1.512c-0.739,1.312-1.924,1.757-3.089,1.757
		c-2.817,0-4.934-2.137-4.934-5.74c0-3.782,2.078-5.741,4.874-5.741c1.011,0,2.585,0.624,3.148,1.757v-6.074H368.295z
		 M360.272,84.847c0,1.914,1.205,3.226,2.72,3.226c1.495,0,2.778-1.245,2.778-3.226c0-1.915-1.283-3.205-2.778-3.205
		C361.478,81.642,360.272,82.867,360.272,84.847z"/>
	<path fill="#F9F9F9" d="M373.1,88.94c0,2.114-2.798,2.114-2.798,0C370.302,86.827,373.1,86.827,373.1,88.94z"/>
</g>
</svg>
